# xmcd CD database file
#
# Track frame offsets:
#	150
#	1050
#	20487
#	46297
#	66630
#	75932
#	95140
#	104200
#	123822
#	148927
#	172202
#	192780
#	220540
#
# Disc length: 3150 seconds
#
# Revision: 1
# Processed by: cddbd v1.5.2PL0 Copyright (c) Steve Scherf et al.
# Submitted via: CDex 1.51
#
DISCID=b60c4c0d
DTITLE=Richard Leo Johnson - Fingertip Ship
DYEAR=1999
DGENRE=Instrumental
TTITLE0=Hearts of palm
TTITLE1=Glidepath
TTITLE2=Tony Bennett
TTITLE3=Mother's day
TTITLE4=Bluefield
TTITLE5=Get funked
TTITLE6=Cicada
TTITLE7=The filing song
TTITLE8=Jaco Morocco
TTITLE9=Synthetic blues
TTITLE10=Heart of the beast
TTITLE11=Prometheus meets the digital age
TTITLE12=Empitsu no uta
EXTD=YEAR: 1999
EXTT0=
EXTT1=
EXTT2=
EXTT3=
EXTT4=
EXTT5=
EXTT6=
EXTT7=
EXTT8=
EXTT9=
EXTT10=
EXTT11=
EXTT12=
PLAYORDER=
